# xmcd
#
# Track frame offsets:
# 150
# 12527
# 25597
# 36945
# 56175
# 68910
# 84729
# 94792
# 103757
# 117770
# 130347
# 140882
# 151910
# 169595
#
# Disc length: 2487 seconds
#
#
# Revision: 0
# Processed by: cddbd v1.5.1PL0 Copyright (c) Steve Scherf et al.
# Submitted via: FreeRIP 2.942 
#
DISCID=c009b50e
DTITLE=Various Artist - Country Ballads CD1
DYEAR=1900
DGENRE=country
TTITLE0=Lynn Anderson Stand by your man
TTITLE1=Charlie Rich - Behind closed doors
TTITLE2=Sandy Posey - I Take it back
TTITLE3=Bobby Bare - Me and Bobby McGee
TTITLE4=Willie Nelson - Any old arms won't do
TTITLE5=Billy Jo Spears - Blanket on the ground
TTITLE6=Johnny Cash - Born to loose
TTITLE7=Buck Owens - Why don't mammy stay with daddy and me
TTITLE8=Freddy Fender - Baby I want to love you
TTITLE9=Gene Autry - Goodnight Irene
TTITLE10=Jimmie Rodgers - Kisses sweeter than wine
TTITLE11=Dolly Parton - It wasn't God who made honkytonk angels
TTITLE12=Skeeter Davis - Always on my mind
TTITLE13=Glen Campbell - Southern nights
EXTD=
EXTT0=
EXTT1=
EXTT2=
EXTT3=
EXTT4=
EXTT5=
EXTT6=
EXTT7=
EXTT8=
EXTT9=
EXTT10=
EXTT11=
EXTT12=
EXTT13=
PLAYORDER=
